<svg xmlns="http://www.w3.org/2000/svg" width="1440" height="900" viewBox="0 0 1440 900">
  <rect width="1440" height="900" fill="#F8FAFC"/>
  <text x="44" y="54" font-family="Arial" font-size="28" font-weight="700" fill="#0F172A">Churn Risk &amp; Retention Priority</text>
  <text x="44" y="80" font-family="Arial" font-size="13" fill="#64748B">Identify high-risk, high-value customers for prioritized review</text>
  <rect x="1064" y="32" width="120" height="42" rx="8" fill="#FFFFFF" stroke="#E2E8F0"/>
  <text x="1083" y="58" font-family="Arial" font-size="12" fill="#334155">All Countries ▾</text>
  <rect x="1196" y="32" width="104" height="42" rx="8" fill="#FFFFFF" stroke="#E2E8F0"/>
  <text x="1215" y="58" font-family="Arial" font-size="12" fill="#334155">All Segments ▾</text>
  <rect x="1312" y="32" width="84" height="42" rx="8" fill="#FFFFFF" stroke="#E2E8F0"/>
  <text x="1328" y="58" font-family="Arial" font-size="12" fill="#334155">All Risk ▾</text>

  <g font-family="Arial">
    <rect x="44" y="110" width="320" height="112" rx="10" fill="#FFFFFF" stroke="#E2E8F0"/>
    <text x="68" y="141" font-size="11" font-weight="700" fill="#64748B">HIGH-RISK CUSTOMERS</text>
    <text x="68" y="186" font-size="32" font-weight="700" fill="#EF4444">2,546</text>
    <text x="68" y="208" font-size="11" fill="#64748B">43.3% of identified customers</text>
    <rect x="388" y="110" width="320" height="112" rx="10" fill="#FFFFFF" stroke="#E2E8F0"/>
    <text x="412" y="141" font-size="11" font-weight="700" fill="#64748B">HISTORICAL REVENUE AT RISK</text>
    <text x="412" y="186" font-size="32" font-weight="700" fill="#0F172A">£2.44M</text>
    <text x="412" y="208" font-size="11" fill="#64748B">High-risk customers only</text>
    <rect x="732" y="110" width="320" height="112" rx="10" fill="#FFFFFF" stroke="#E2E8F0"/>
    <text x="756" y="141" font-size="11" font-weight="700" fill="#64748B">AVERAGE CHURN PROBABILITY</text>
    <text x="756" y="186" font-size="32" font-weight="700" fill="#F59E0B">65.6%</text>
    <text x="756" y="208" font-size="11" fill="#64748B">Current scoring snapshot</text>
    <rect x="1076" y="110" width="320" height="112" rx="10" fill="#FFFFFF" stroke="#E2E8F0"/>
    <text x="1100" y="141" font-size="11" font-weight="700" fill="#64748B">PREDICTED 90-DAY VALUE</text>
    <text x="1100" y="186" font-size="32" font-weight="700" fill="#0F766E">£708.9K</text>
    <text x="1100" y="208" font-size="11" fill="#64748B">Exploratory estimate</text>
  </g>

  <rect x="44" y="246" width="560" height="302" rx="10" fill="#FFFFFF" stroke="#E2E8F0"/>
  <text x="68" y="279" font-family="Arial" font-size="15" font-weight="700" fill="#0F172A">Risk Distribution by RFM Segment</text>
  <text x="68" y="299" font-family="Arial" font-size="11" fill="#64748B">Distinct customers · stacked risk bands</text>
  <g font-family="Arial" font-size="10" fill="#64748B">
    <rect x="400" y="271" width="9" height="9" fill="#10B981"/><text x="415" y="279">Low</text>
    <rect x="455" y="271" width="9" height="9" fill="#F59E0B"/><text x="470" y="279">Medium</text>
    <rect x="531" y="271" width="9" height="9" fill="#EF4444"/><text x="546" y="279">High</text>
  </g>
  <g font-family="Arial" font-size="10" fill="#334155">
    <text x="68" y="340">At Risk</text><rect x="202" y="325" width="8" height="18" fill="#10B981"/><rect x="210" y="325" width="24" height="18" fill="#F59E0B"/><rect x="234" y="325" width="320" height="18" fill="#EF4444"/><text x="562" y="339">1,182</text>
    <text x="68" y="382">Regular</text><rect x="202" y="367" width="46" height="18" fill="#10B981"/><rect x="248" y="367" width="137" height="18" fill="#F59E0B"/><rect x="385" y="367" width="169" height="18" fill="#EF4444"/><text x="562" y="381">1,391</text>
    <text x="68" y="424">HV At Risk</text><rect x="202" y="409" width="6" height="18" fill="#10B981"/><rect x="208" y="409" width="83" height="18" fill="#F59E0B"/><rect x="291" y="409" width="263" height="18" fill="#EF4444"/><text x="562" y="423">931</text>
    <text x="68" y="466">Loyal</text><rect x="202" y="451" width="135" height="18" fill="#10B981"/><rect x="337" y="451" width="154" height="18" fill="#F59E0B"/><rect x="491" y="451" width="63" height="18" fill="#EF4444"/><text x="562" y="465">1,031</text>
    <text x="68" y="508">Champions</text><rect x="202" y="493" width="265" height="18" fill="#10B981"/><rect x="467" y="493" width="54" height="18" fill="#F59E0B"/><rect x="521" y="493" width="33" height="18" fill="#EF4444"/><text x="562" y="507">1,020</text>
  </g>

  <rect x="628" y="246" width="768" height="302" rx="10" fill="#FFFFFF" stroke="#E2E8F0"/>
  <text x="652" y="279" font-family="Arial" font-size="15" font-weight="700" fill="#0F172A">Risk–Value Matrix</text>
  <text x="652" y="299" font-family="Arial" font-size="11" fill="#64748B">Churn probability vs historical value · bubble size = predicted 90-day value</text>
  <line x1="700" y1="510" x2="1360" y2="510" stroke="#CBD5E1"/>
  <line x1="700" y1="510" x2="700" y2="326" stroke="#CBD5E1"/>
  <line x1="1162" y1="326" x2="1162" y2="510" stroke="#991B1B" stroke-width="1.5" stroke-dasharray="5 5"/>
  <line x1="700" y1="421" x2="1360" y2="421" stroke="#94A3B8" stroke-width="1" stroke-dasharray="4 5"/>
  <text x="1170" y="342" font-family="Arial" font-size="10" fill="#991B1B">70% risk threshold</text>
  <text x="708" y="415" font-family="Arial" font-size="10" fill="#64748B">median value</text>
  <rect x="1162" y="326" width="198" height="95" fill="#FEE2E2" opacity="0.35"/>
  <g opacity="0.72">
    <circle cx="760" cy="479" r="5" fill="#10B981"/><circle cx="805" cy="463" r="7" fill="#10B981"/><circle cx="848" cy="486" r="6" fill="#10B981"/><circle cx="890" cy="447" r="8" fill="#10B981"/>
    <circle cx="934" cy="470" r="7" fill="#F59E0B"/><circle cx="978" cy="439" r="9" fill="#F59E0B"/><circle cx="1030" cy="456" r="8" fill="#F59E0B"/><circle cx="1081" cy="411" r="11" fill="#F59E0B"/><circle cx="1122" cy="388" r="12" fill="#F59E0B"/>
    <circle cx="1178" cy="472" r="8" fill="#EF4444"/><circle cx="1210" cy="438" r="10" fill="#EF4444"/><circle cx="1248" cy="402" r="12" fill="#EF4444"/><circle cx="1288" cy="371" r="15" fill="#EF4444"/><circle cx="1330" cy="348" r="18" fill="#EF4444"/>
    <circle cx="1188" cy="389" r="7" fill="#EF4444"/><circle cx="1260" cy="455" r="9" fill="#EF4444"/><circle cx="1350" cy="430" r="11" fill="#EF4444"/>
  </g>
  <g font-family="Arial" font-size="10" fill="#64748B">
    <text x="694" y="529">0%</text><text x="1015" y="529">50%</text><text x="1334" y="529">100%</text>
    <text x="956" y="543">Churn probability →</text>
    <text x="664" y="445" transform="rotate(-90 664 445)">Historical value →</text>
  </g>

  <rect x="44" y="572" width="520" height="280" rx="10" fill="#FFFFFF" stroke="#E2E8F0"/>
  <text x="68" y="605" font-family="Arial" font-size="15" font-weight="700" fill="#0F172A">Churn Probability Distribution</text>
  <text x="68" y="625" font-family="Arial" font-size="11" fill="#64748B">Customer count by 5-point probability bin</text>
  <line x1="88" y1="815" x2="536" y2="815" stroke="#CBD5E1"/>
  <g>
    <rect x="100" y="758" width="18" height="57" fill="#10B981"/><rect x="122" y="744" width="18" height="71" fill="#10B981"/><rect x="144" y="732" width="18" height="83" fill="#10B981"/><rect x="166" y="748" width="18" height="67" fill="#10B981"/>
    <rect x="188" y="754" width="18" height="61" fill="#F59E0B"/><rect x="210" y="735" width="18" height="80" fill="#F59E0B"/><rect x="232" y="715" width="18" height="100" fill="#F59E0B"/><rect x="254" y="695" width="18" height="120" fill="#F59E0B"/><rect x="276" y="677" width="18" height="138" fill="#F59E0B"/>
    <rect x="298" y="661" width="18" height="154" fill="#EF4444"/><rect x="320" y="642" width="18" height="173" fill="#EF4444"/><rect x="342" y="628" width="18" height="187" fill="#EF4444"/><rect x="364" y="616" width="18" height="199" fill="#EF4444"/><rect x="386" y="636" width="18" height="179" fill="#EF4444"/><rect x="408" y="657" width="18" height="158" fill="#EF4444"/><rect x="430" y="682" width="18" height="133" fill="#EF4444"/><rect x="452" y="706" width="18" height="109" fill="#EF4444"/>
  </g>
  <line x1="298" y1="640" x2="298" y2="815" stroke="#991B1B" stroke-width="1.5" stroke-dasharray="5 5"/>
  <g font-family="Arial" font-size="10" fill="#64748B"><text x="88" y="835">0%</text><text x="300" y="835">70%</text><text x="506" y="835">100%</text></g>

  <rect x="588" y="572" width="808" height="280" rx="10" fill="#FFFFFF" stroke="#E2E8F0"/>
  <text x="612" y="605" font-family="Arial" font-size="15" font-weight="700" fill="#0F172A">Priority Customer Ranking</text>
  <text x="612" y="625" font-family="Arial" font-size="11" fill="#64748B">Filtered to priority 1–3 · ranked by historical value</text>
  <g font-family="Arial" font-size="10" fill="#334155">
    <text x="612" y="663">12346</text><rect x="682" y="650" width="620" height="16" rx="3" fill="#EF4444"/><text x="1312" y="663">£77,556</text>
    <text x="612" y="697">16754</text><rect x="682" y="684" width="540" height="16" rx="3" fill="#EF4444"/><text x="1232" y="697">£67,502</text>
    <text x="612" y="731">17850</text><rect x="682" y="718" width="452" height="16" rx="3" fill="#EF4444"/><text x="1144" y="731">£56,600</text>
    <text x="612" y="765">13093</text><rect x="682" y="752" width="438" height="16" rx="3" fill="#EF4444"/><text x="1130" y="765">£54,944</text>
    <text x="612" y="799">14911</text><rect x="682" y="786" width="310" height="16" rx="3" fill="#F59E0B"/><text x="1002" y="799">Priority 2</text>
    <text x="612" y="833">14156</text><rect x="682" y="820" width="226" height="16" rx="3" fill="#3B82F6"/><text x="918" y="833">Priority 3</text>
  </g>
  <text x="44" y="878" font-family="Arial" font-size="10" fill="#64748B">Logistic Regression · out-of-time ROC-AUC 0.737 · recall 0.750 · churn = no order in the next 90 days</text>
</svg>
